<?xml version="1.0" encoding="UTF-8"?>
<svg version="1.1" xmlns="http://www.w3.org/2000/svg" width="1000" height="400">
<path d="M0 0 C330 0 660 0 1000 0 C1000 132 1000 264 1000 400 C670 400 340 400 0 400 C0 268 0 136 0 0 Z " fill="#F0FEED" transform="translate(0,0)"/>
<path d="M0 0 C1.94410767 -0.00580078 1.94410767 -0.00580078 3.92749023 -0.01171875 C5.296718 -0.00351475 6.6659405 0.00561437 8.03515625 0.015625 C9.07121506 0.01828369 9.07121506 0.01828369 10.12820435 0.02099609 C20.23000764 0.05155109 30.13510649 0.45718809 40.09765625 2.265625 C38.36752354 6.37723451 35.525266 9.6031347 32.72265625 13.015625 C27.7511472 19.13860655 22.95735751 25.36853872 18.28369141 31.72167969 C10.72368468 41.93733365 2.94407091 51.97616428 -9.90234375 55.265625 C-16.79020819 56.27793235 -22.15471838 55.21309925 -27.90234375 51.265625 C-30.65234375 48.890625 -30.65234375 48.890625 -32.90234375 46.265625 C-33.66546875 45.440625 -34.42859375 44.615625 -35.21484375 43.765625 C-38.35475896 37.25320828 -37.76384323 29.5030408 -35.96484375 22.578125 C-32.42660658 13.62556212 -24.99267142 7.71768614 -16.67578125 3.421875 C-11.09895074 1.09688651 -6.03892014 0.01174153 0 0 Z " fill="#9ADC73" transform="translate(900.90234375,102.734375)"/>
<path d="M0 0 C2.09030971 -0.00043706 4.18061937 -0.00131443 6.27092874 -0.00258917 C11.96525917 -0.00480775 17.65957052 -0.00084928 23.35389853 0.0041889 C29.5131489 0.00853139 35.67239831 0.00704429 41.83164978 0.00628662 C52.48653068 0.00576379 63.1414048 0.00885023 73.79628372 0.01452446 C84.96250055 0.02045566 96.12871492 0.02429326 107.29493332 0.02537727 C108.33907599 0.02548038 108.33907599 0.02548038 109.40431246 0.02558558 C112.93989379 0.02592394 116.47547513 0.02622531 120.01105647 0.02651245 C145.00813558 0.02860897 170.0052115 0.03533541 195.00228882 0.04481506 C219.27605167 0.05400974 243.54981364 0.06108833 267.82357788 0.06532288 C268.57272053 0.0654544 269.32186319 0.06558593 270.09370713 0.06572144 C277.61738413 0.06704004 285.14106114 0.06831584 292.66473815 0.0695603 C307.98928105 0.07209604 323.31382389 0.07491729 338.6383667 0.07791138 C339.34285641 0.07804867 340.04734612 0.07818596 340.773184 0.07832741 C387.76198853 0.08751723 434.75079118 0.10338204 481.73959351 0.12025452 C481.73959351 0.78025452 481.73959351 1.44025452 481.73959351 2.12025452 C496.25959351 2.12025452 510.77959351 2.12025452 525.73959351 2.12025452 C523.10278484 4.75706318 521.89471816 4.39061481 518.21151257 4.43699455 C517.03121436 4.45643584 515.85091615 4.47587713 514.63485134 4.49590755 C512.67590472 4.51260898 512.67590472 4.51260898 510.67738342 4.52964783 C509.2886951 4.54814374 507.9000168 4.56740475 506.51134884 4.58737111 C502.69238226 4.63927942 498.87338294 4.67779121 495.05423357 4.71339312 C492.61335947 4.73710566 490.17255148 4.76440231 487.73172891 4.79290748 C449.0038974 5.24419351 410.27458919 5.26855608 371.54462208 5.25555588 C364.37226839 5.253211 357.19991706 5.25300804 350.0275631 5.25407028 C348.97985693 5.25422352 347.93215077 5.25437675 346.85269594 5.25453462 C344.71849102 5.25485463 342.58428611 5.25517885 340.45008119 5.25550722 C320.6255226 5.25832925 300.8009687 5.25513541 280.97641089 5.24970685 C264.43693871 5.2453144 247.89747373 5.2460021 231.35800171 5.25062561 C125.7465184 5.27937519 20.14034945 5.0717074 -131.26040649 4.12025452 C-131.59040649 3.46025452 -131.92040649 2.80025452 -132.26040649 2.12025452 C-131.13526642 2.10994705 -130.01012634 2.09963959 -128.85089111 2.08901978 C-118.17253084 1.99064953 -107.49422066 1.88786442 -96.81594276 1.78091526 C-91.32804752 1.72608841 -85.84014672 1.67273973 -80.35220337 1.62294006 C-75.04180337 1.57469426 -69.73145739 1.52234254 -64.4211235 1.46731377 C-62.40968573 1.44715898 -60.39823332 1.42840712 -58.38676834 1.4111805 C-55.53811686 1.38652789 -52.68956154 1.35657552 -49.8409729 1.32557678 C-49.03606918 1.31982132 -48.23116547 1.31406586 -47.40187073 1.30813599 C-42.73749629 1.2515759 -38.098656 1.05693677 -33.44322922 0.75674075 C-22.29047341 0.05598909 -11.1712692 -0.01759237 0 0 Z " fill="#468122" transform="translate(252.26040649414063,260.87974548339844)"/>
<path d="M0 0 C6.6 0 13.2 0 20 0 C25.10494064 11.4836479 28.8365483 23.36367447 32.6875 35.3125 C33.37001461 37.41485257 34.05295415 39.51706724 34.73632812 41.61914062 C35.39101109 43.63789567 36.04532116 45.65677168 36.69921875 47.67578125 C37.0013176 48.60820145 37.30341644 49.54062164 37.6146698 50.501297 C38.41896079 52.9980712 39.21263492 55.49784353 40 58 C40.2141153 58.66663666 40.42823059 59.33327332 40.64883423 60.02011108 C41.759982 63.63312058 42 66.09844946 42 70 C38.04 70 34.08 70 30 70 C29.3299166 67.87607494 28.66403203 65.75082476 28 63.625 C27.62875 62.44164062 27.2575 61.25828125 26.875 60.0390625 C26 57 26 57 26 55 C12.635 55.495 12.635 55.495 -1 56 C-1.639375 58.124375 -2.27875 60.24875 -2.9375 62.4375 C-4.875 68.875 -4.875 68.875 -6 70 C-7.85287502 70.07226502 -9.70833878 70.0838122 -11.5625 70.0625 C-13.08037109 70.04896484 -13.08037109 70.04896484 -14.62890625 70.03515625 C-15.41136719 70.02355469 -16.19382812 70.01195312 -17 70 C-16.69458261 64.29887546 -15.58054583 59.44055242 -13.77734375 54.01953125 C-10.50745377 43.8870278 -8.1534206 33.5524752 -5.75 23.1875 C-5.08210342 20.32966402 -4.41255106 17.47222451 -3.74176025 14.61506653 C-3.32904896 12.85486937 -2.91827406 11.09421674 -2.50970459 9.33305359 C-2.32571106 8.54405167 -2.14171753 7.75504974 -1.95214844 6.94213867 C-1.79180115 6.2509343 -1.63145386 5.55972992 -1.46624756 4.84757996 C-1.0531807 3.21073695 -0.5338426 1.60152781 0 0 Z " fill="#4A7D2D" transform="translate(306,172)"/>
<path d="M0 0 C6.24562351 5.04795423 11.18267116 10.0376909 12.3046875 18.22265625 C12.5317876 22.22362563 12.16849573 24.64278906 10.4375 28.3125 C6.78082097 32.34422303 3.78715179 34.62940991 -1.59814453 35.34545898 C-9.90287705 35.59701197 -15.59588018 33.52549336 -22.875 29.6875 C-23.86757813 29.18798828 -24.86015625 28.68847656 -25.8828125 28.17382812 C-29.70150007 26.24661615 -33.49113778 24.26747108 -37.27734375 22.27734375 C-48.95414763 16.79913016 -61.33022687 16.27276153 -74 16 C-66.85680643 8.65380271 -58.92207936 3.23770081 -49.8125 -1.375 C-49.15983154 -1.70862549 -48.50716309 -2.04225098 -47.8347168 -2.38598633 C-32.50585843 -9.89128241 -14.10483433 -10.00928999 0 0 Z " fill="#9BDC74" transform="translate(845,126)"/>
<path d="M0 0 C-1.66666667 3.33333333 -3.33333333 6.66666667 -5 10 C-6.50240234 9.76216797 -6.50240234 9.76216797 -8.03515625 9.51953125 C-17.26352196 8.31029712 -27.20796306 7.07882342 -35 13 C-39.08612547 16.37549495 -40.6423161 18.92654962 -42 24 C-43.13915066 36.75290431 -43.13915066 36.75290431 -38 48 C-33.02650891 53.23277262 -28.54227554 56.0154425 -21.25 56.375 C-15.19828129 56.23069672 -9.77442199 54.65774069 -5.328125 50.3984375 C-3.78300357 48.61529633 -3.78300357 48.61529633 -2 46 C-6.62 46 -11.24 46 -16 46 C-16 42.37 -16 38.74 -16 35 C-6.62895894 34.11504503 2.59771406 33.8829591 12 34 C12.76093286 44.12463446 9.97134875 51.29802401 3.69140625 59.21484375 C-2.71552292 65.97689139 -11.67727965 69.05931792 -20.8125 69.5 C-30.25104364 69.22345668 -38.53964541 65.39228563 -45.3203125 58.87890625 C-48.06254028 55.81143751 -50.16393236 52.67909009 -52 49 C-52.3196875 48.36964844 -52.639375 47.73929688 -52.96875 47.08984375 C-56.84133216 37.78488939 -56.50342453 25.68015322 -52.875 16.375 C-48.04088022 6.51824323 -41.14307131 0.45359894 -30.66796875 -3.14453125 C-20.02518996 -5.62671288 -9.8334186 -4.66670713 0 0 Z " fill="#497D2B" transform="translate(675,175)"/>
<path d="M0 0 C14.35933907 -0.1304554 28.65525054 0.35112603 43 1 C43 4.96 43 8.92 43 13 C33.1 13 23.2 13 13 13 C13 21.58 13 30.16 13 39 C19.93 39 26.86 39 34 39 C34 42.96 34 46.92 34 51 C27.07 51 20.14 51 13 51 C13 53.64 13 56.28 13 59 C22.9 59 32.8 59 43 59 C43 62.96 43 66.92 43 71 C29.14 71 15.28 71 1 71 C0.85537032 64.42451496 0.71227641 57.84902852 0.57275391 51.2734375 C0.52509413 49.04718232 0.47662187 46.82094435 0.42724609 44.59472656 C0.09819658 29.72706061 -0.06697952 14.87131369 0 0 Z " fill="#497E29" transform="translate(559,171)"/>
<path d="M0 0 C8.01695591 30.40200055 8.01695591 30.40200055 10.5 42.0625 C10.65952148 42.79702393 10.81904297 43.53154785 10.98339844 44.28833008 C11.79687049 48.25001413 12.15133197 51.95817528 12 56 C12.99 56 13.98 56 15 56 C15.22816406 54.85144531 15.45632813 53.70289063 15.69140625 52.51953125 C17.33533748 45.1240095 19.69903598 37.91964644 21.9375 30.6875 C22.82529692 27.8175251 23.71009355 24.94667108 24.58984375 22.07421875 C24.80128021 21.38431854 25.01271667 20.69441833 25.2305603 19.98361206 C26.81766257 14.74398123 28.1845016 9.469527 29.42407227 4.13598633 C30 2 30 2 31 1 C32.85772162 1.08984301 34.71247985 1.24611861 36.5625 1.4375 C37.57441406 1.53933594 38.58632813 1.64117187 39.62890625 1.74609375 C40.41136719 1.82988281 41.19382812 1.91367188 42 2 C42.27836164 7.68760534 41.31533685 12.3180924 39.6875 17.75 C39.2249686 19.34626964 38.76272814 20.94262361 38.30078125 22.5390625 C38.07600098 23.30508789 37.8512207 24.07111328 37.61962891 24.86035156 C36.82526232 27.60338889 36.09850372 30.36253125 35.375 33.125 C34.4043283 36.70030744 33.24035604 40.12320017 31.8828125 43.57421875 C30.39278806 47.66848943 29.15323636 51.84578209 27.88916016 56.0144043 C26.43178312 60.77458399 24.75621106 65.3167705 23 70 C16.73 70 10.46 70 4 70 C1.17141288 59.77356966 -1.2869153 49.50177755 -3.63378906 39.15454102 C-5.63026482 30.42595405 -7.83139725 21.76370354 -10.17138672 13.12109375 C-10.41131348 12.22648438 -10.65124023 11.331875 -10.8984375 10.41015625 C-11.11161621 9.62777588 -11.32479492 8.84539551 -11.54443359 8.03930664 C-12 6 -12 6 -12 3 C-10.56445975 2.49440092 -9.1264798 1.9957251 -7.6875 1.5 C-6.88699219 1.2215625 -6.08648437 0.943125 -5.26171875 0.65625 C-3 0 -3 0 0 0 Z " fill="#497B2A" transform="translate(499,172)"/>
<path d="M0 0 C43.56 0 87.12 0 132 0 C132 0.66 132 1.32 132 2 C115.17 2 98.34 2 81 2 C81 2.99 81 3.98 81 5 C1.17336982 5.36247244 -78.65343618 5.70827478 -463.14267397 5.57804394 C-465.70934107 5.56274239 -468.27600937 5.54766041 -470.84267807 5.53263092 C-516.56616456 5.26376089 -562.28183689 4.75055714 -608 4 C-608 3.67 -608 3.34 -608 3 C-606.80680509 3.00037972 -605.61361018 3.00075944 -604.38425785 3.00115067 C-551.61045627 3.01787798 -498.83665446 3.03329718 -446.06285095 3.04234314 C-444.85784036 3.04255023 -444.85784036 3.04255023 -443.62848612 3.04276149 C-426.15519048 3.04575682 -408.68189481 3.04852665 -391.20859909 3.05106533 C-382.63540395 3.05231229 -374.06220881 3.05360889 -365.48901367 3.05493164 C-364.20954544 3.05512778 -364.20954544 3.05512778 -362.90422936 3.05532788 C-335.42893815 3.0595629 -307.95364903 3.06705407 -280.47835909 3.07629722 C-252.16192764 3.08580568 -223.84549736 3.09190278 -195.52906435 3.09391499 C-191.49772846 3.094203 -187.46639257 3.09452863 -183.43505669 3.09487724 C-182.24532276 3.09497838 -182.24532276 3.09497838 -181.03155381 3.09508156 C-169.2131482 3.09617593 -157.39474592 3.10016584 -145.57634163 3.10573006 C-127.80227702 3.11394231 -110.0282167 3.11775547 -92.25415039 3.11352539 C-91.55928073 3.113369 -90.86441107 3.11321261 -90.14848475 3.11305148 C-46.09176398 3.10226958 -2.04915587 2.84077079 42 2 C28.14 1.67 14.28 1.34 0 1 C0 0.67 0 0.34 0 0 Z " fill="#AAD098" transform="translate(734,262)"/>
<path d="M0 0 C3.96 0 7.92 0 12 0 C12 19.14 12 38.28 12 58 C22.23 58 32.46 58 43 58 C43 61.96 43 65.92 43 70 C28.81 70 14.62 70 0 70 C0 46.9 0 23.8 0 0 Z " fill="#487D26" transform="translate(427,172)"/>
<path d="M0 0 C3.96 0 7.92 0 12 0 C12 19.14 12 38.28 12 58 C22.23 58 32.46 58 43 58 C43 61.96 43 65.92 43 70 C28.81 70 14.62 70 0 70 C0 46.9 0 23.8 0 0 Z " fill="#457B25" transform="translate(367,172)"/>
<path d="M0 0 C165.99 0 331.98 0 503 0 C503 0.66 503 1.32 503 2 C517.52 2 532.04 2 547 2 C544.47735755 4.52264245 543.61558453 4.26727184 540.11889648 4.31884766 C538.54416565 4.34864464 538.54416565 4.34864464 536.93762207 4.37904358 C535.76066772 4.39059982 534.58371338 4.40215607 533.37109375 4.4140625 C532.1030188 4.43347397 530.83494385 4.45288544 529.52844238 4.47288513 C525.93096493 4.52625506 522.33344908 4.56518937 518.73575974 4.60109329 C516.43879523 4.62498653 514.14190783 4.65271035 511.84500122 4.68161011 C455.57038793 5.38093235 399.27781345 5.08681669 343 5 C343 4.67 343 4.34 343 4 C356.53 3.67 370.06 3.34 384 3 C384 2.67 384 2.34 384 2 C257.28 1.67 130.56 1.34 0 1 C0 0.67 0 0.34 0 0 Z " fill="#6C9E4E" transform="translate(231,261)"/>
<path d="M0 0 C4.02238703 1.379547 6.53173002 3.30514777 8.9375 6.875 C10.10040079 10.29529645 10.52179877 12.4219513 10 16 C7.69383177 20.27068191 5.26909326 23.63837394 1 26 C-3.43922888 26.72629586 -7.88794963 27.0935913 -11.9765625 24.9765625 C-14.95236056 22.55781038 -17.73863601 19.81257625 -18.30078125 15.9140625 C-18.32529159 11.12637544 -18.24704267 7.78821645 -15 4 C-10.24018726 -0.19316837 -6.11207385 -1.04170998 0 0 Z " fill="#95E447" transform="translate(703,283)"/>
<path d="M0 0 C3.7969009 1.93567497 4.66369386 2.99108158 6 7 C6 10.53863639 5.14025012 11.32468735 3 14 C3.22247027 16.37301622 3.94723341 17.90067466 5.0625 20 C6 22 6 22 6 26 C3.6875 25.875 3.6875 25.875 1 25 C0.525625 24.030625 0.05125 23.06125 -0.4375 22.0625 C-1.73679772 18.71159609 -1.73679772 18.71159609 -5.1875 17.625 C-6.115625 17.41875 -7.04375 17.2125 -8 17 C-8 19.97 -8 22.94 -8 26 C-9.98 26 -11.96 26 -14 26 C-14 17.75 -14 9.5 -14 1 C-9.81903755 -1.09048122 -4.55410516 -0.43112196 0 0 Z " fill="#A5E971" transform="translate(178,283)"/>
<path d="M0 0 C12 0 12 0 16.25 2.125 C19 5 19 5 19.625 8.125 C18.94275605 11.26332216 18.22422616 11.87247932 16 14 C16.17184204 16.66355161 16.91838472 17.89553245 18.5625 20 C20 22 20 22 20 26 C17.69140625 26.27734375 17.69140625 26.27734375 15 26 C13.33984375 24.06640625 13.33984375 24.06640625 11.9375 21.5625 C10.60069782 19.07777724 10.60069782 19.07777724 9 17 C7.68 16.67 6.36 16.34 5 16 C5 19.3 5 22.6 5 26 C3.02 26 1.04 26 -1 26 C-0.67 17.42 -0.34 8.84 0 0 Z " fill="#A2E568" transform="translate(531,283)"/>
<path d="M0 0 C1.25482681 0.02219604 2.50965363 0.04439209 3.80250549 0.06726074 C7.7030096 0.13668193 11.60345553 0.20889804 15.50390625 0.28125 C18.1933519 0.32984708 20.88280856 0.37782081 23.57226562 0.42578125 C30.07035275 0.54212477 36.56839503 0.66074514 43.06640625 0.78125 C43.06640625 1.11125 43.06640625 1.44125 43.06640625 1.78125 C38.30338382 2.54945121 33.74513104 2.90515517 28.92262268 2.90150452 C27.89684668 2.90278615 27.89684668 2.90278615 26.85034794 2.90409368 C24.57802035 2.90572983 22.30576796 2.90025792 20.03344727 2.89477539 C18.39696759 2.89449309 16.76048778 2.89465209 15.12400818 2.8952179 C10.69480073 2.89550419 6.26562049 2.8896345 1.83641934 2.88264394 C-2.79737125 2.87638255 -7.4311625 2.8758044 -12.06495667 2.87461853 C-20.83372305 2.87151342 -29.60247693 2.8633111 -38.37123781 2.85326904 C-48.35669817 2.84208242 -58.34215913 2.83659103 -68.3276242 2.83157361 C-88.86295436 2.8211278 -109.39827326 2.80354425 -129.93359375 2.78125 C-130.26359375 2.12125 -130.59359375 1.46125 -130.93359375 0.78125 C-119.20514263 0.64935588 -107.47667667 0.51887467 -95.74819088 0.39009857 C-90.29964885 0.33023253 -84.85111265 0.26991613 -79.40258789 0.20849609 C-74.12463625 0.14901671 -68.84667178 0.09081737 -63.56869698 0.03343201 C-61.57532835 0.01154805 -59.58196436 -0.01076391 -57.58860588 -0.03355408 C-38.39141832 -0.2524928 -19.19602595 -0.36513106 0 0 Z " fill="#528E2F" transform="translate(250.93359375,262.21875)"/>
<path d="M0 0 C2.64 0 5.28 0 8 0 C10.94975202 5.47931145 12.46165234 10.96243542 14.03515625 16.953125 C14.76566174 20.07275846 14.76566174 20.07275846 17 22 C16.625 24.125 16.625 24.125 16 26 C13.6875 26.3125 13.6875 26.3125 11 26 C10.566875 25.195625 10.13375 24.39125 9.6875 23.5625 C8.30526255 20.85552673 8.30526255 20.85552673 6.0390625 20.4453125 C4.03397286 20.21314423 2.01604957 20.09914998 0 20 C0 21.65 0 23.3 0 25 C-2.31 25.33 -4.62 25.66 -7 26 C-6.48871615 21.19393185 -5.42708808 16.97918022 -3.83203125 12.421875 C-2.42347322 8.32184694 -1.22400529 4.15814562 0 0 Z " fill="#9EE957" transform="translate(796,283)"/>
<path d="M0 0 C57.09 0 114.18 0 173 0 C173 0.33 173 0.66 173 1 C127.46 1.495 127.46 1.495 81 2 C81 2.33 81 2.66 81 3 C54.27 3 27.54 3 0 3 C0 2.01 0 1.02 0 0 Z " fill="#B1D0A5" transform="translate(40,262)"/>
<path d="M0 0 C43.56 0 87.12 0 132 0 C132 0.66 132 1.32 132 2 C118.7087448 2.35030713 105.41707712 2.68239751 92.125 3 C90.63440504 3.03563175 90.63440504 3.03563175 89.11369705 3.07198334 C59.55269007 3.77362013 30.00702836 4.18806484 0.4375 4.125 C-0.37119286 4.12328796 -1.17988571 4.12157593 -2.01308441 4.11981201 C-11.67549375 4.09777086 -21.33774129 4.05882877 -31 4 C-31 3.67 -31 3.34 -31 3 C-6.91 2.67 17.18 2.34 42 2 C28.14 1.67 14.28 1.34 0 1 C0 0.67 0 0.34 0 0 Z " fill="#A0C586" transform="translate(734,262)"/>
<path d="M0 0 C0.66 0 1.32 0 2 0 C6.39453125 13.18359375 6.39453125 13.18359375 7.18994141 15.58544922 C7.73707669 17.21630153 8.29699749 18.84291192 8.86865234 20.46533203 C9.14273926 21.25149902 9.41682617 22.03766602 9.69921875 22.84765625 C9.94889404 23.55027588 10.19856934 24.25289551 10.45581055 24.97680664 C11 27 11 27 11 31 C5.06 31 -0.88 31 -7 31 C-6.43858321 23.91211308 -5.29137215 17.31125087 -3.5 10.4375 C-3.27441406 9.53708984 -3.04882812 8.63667969 -2.81640625 7.70898438 C-1.1409337 1.1409337 -1.1409337 1.1409337 0 0 Z " fill="#EEF5EB" transform="translate(316,184)"/>
<path d="M0 0 C2.33194094 -0.08059704 4.66789553 -0.07571768 7 0 C10.17069082 3.39716874 11.00279591 8.10716322 12.23828125 12.5 C12.9173003 14.72857536 13.71727543 16.76145915 14.6875 18.875 C16 22 16 22 16 26 C13.625 25.8125 13.625 25.8125 11 25 C9.6875 22.4375 9.6875 22.4375 9 20 C6.03 19.67 3.06 19.34 0 19 C-0.66 21.31 -1.32 23.62 -2 26 C-3.65 26 -5.3 26 -7 26 C-6.35472416 22.58084131 -5.55372548 19.26079263 -4.58984375 15.91796875 C-4.32236328 14.98662109 -4.05488281 14.05527344 -3.77929688 13.09570312 C-3.50150391 12.13599609 -3.22371094 11.17628906 -2.9375 10.1875 C-2.65583984 9.20845703 -2.37417969 8.22941406 -2.08398438 7.22070312 C-1.39111599 4.81327907 -0.69639849 2.40640481 0 0 Z " fill="#94DF4F" transform="translate(456,283)"/>
<path d="M0 0 C1.65 0 3.3 0 5 0 C5 4.95 5 9.9 5 15 C7.97 15 10.94 15 14 15 C14 10.05 14 5.1 14 0 C15.65 0 17.3 0 19 0 C19 8.25 19 16.5 19 25 C17.35 25.33 15.7 25.66 14 26 C13.67 24.02 13.34 22.04 13 20 C10.36 19.67 7.72 19.34 5 19 C5.020625 19.804375 5.04125 20.60875 5.0625 21.4375 C5 24 5 24 4 25 C2.33382885 25.04063832 0.66611905 25.042721 -1 25 C-1.02886984 21.02084841 -1.04675406 17.04172347 -1.0625 13.0625 C-1.07087891 11.92619141 -1.07925781 10.78988281 -1.08789062 9.61914062 C-1.09111328 8.53955078 -1.09433594 7.45996094 -1.09765625 6.34765625 C-1.10289307 5.34742432 -1.10812988 4.34719238 -1.11352539 3.31665039 C-1 1 -1 1 0 0 Z " fill="#A1E86D" transform="translate(297,283)"/>
<path d="M0 0 C0 0.99 0 1.98 0 3 C-1.24716797 3.05607422 -1.24716797 3.05607422 -2.51953125 3.11328125 C-3.60621094 3.17902344 -4.69289063 3.24476563 -5.8125 3.3125 C-7.43091797 3.39951172 -7.43091797 3.39951172 -9.08203125 3.48828125 C-11.96311696 3.7828754 -11.96311696 3.7828754 -13.84375 5.28125 C-15.22136717 7.3290593 -15.48681783 8.73917755 -15.6875 11.1875 C-15.790625 12.445625 -15.89375 13.70375 -16 15 C-15.34 15 -14.68 15 -14 15 C-13.4121875 15.99 -13.4121875 15.99 -12.8125 17 C-11.04097377 19.41070312 -11.04097377 19.41070312 -7.375 19.3125 C-4.16475062 19.37771762 -4.16475062 19.37771762 -3 18 C-1.33382885 17.95936168 0.33388095 17.957279 2 18 C2 19.32 2 20.64 2 22 C-2.78213636 24.79519238 -7.60497921 24.77294799 -13 24 C-16.24148234 22.39524247 -18.19474952 20.06146654 -20.375 17.1875 C-21.35559482 13.75541813 -21.56587675 10.50304656 -21 7 C-16.97826087 -0.23913043 -16.97826087 -0.23913043 -13.375 -1.625 C-8.48316738 -2.39739462 -4.26004697 -2.84003131 0 0 Z " fill="#9AE75D" transform="translate(760,285)"/>
<path d="M0 0 C3.11782187 2.64337071 4.8446914 4.17357082 5.1953125 8.296875 C4.92523401 11.60263569 4.72270815 14.04568212 2.68359375 16.73828125 C0.25807822 18.55601098 -2.1021556 18.53845969 -5.05859375 18.40234375 C-7 18 -7 18 -9.5 16.0625 C-11.45672734 12.06751501 -11.9106841 8.38112889 -11 4 C-8.14082723 0.34892806 -4.52661114 -0.75443519 0 0 Z " fill="#F5FCF2" transform="translate(702,287)"/>
<path d="M0 0 C5.94 0 11.88 0 18 0 C18 1.32 18 2.64 18 4 C12.555 4.495 12.555 4.495 7 5 C6.67 7.97 6.34 10.94 6 14 C8.64 14 11.28 14 14 14 C13.67 14.99 13.34 15.98 13 17 C10.69 17 8.38 17 6 17 C6.020625 18.134375 6.04125 19.26875 6.0625 20.4375 C6 24 6 24 5 25 C3.35 25 1.7 25 0 25 C0 16.75 0 8.5 0 0 Z " fill="#90DC5A" transform="translate(408,284)"/>
<path d="M0 0 C5.28 0 10.56 0 16 0 C16 0.99 16 1.98 16 3 C12.7 3.33 9.4 3.66 6 4 C5.67 6.97 5.34 9.94 5 13 C7.64 13 10.28 13 13 13 C12.67 14.32 12.34 15.64 12 17 C9.69 17 7.38 17 5 17 C5 18.32 5 19.64 5 21 C8.63 21 12.26 21 16 21 C16 21.99 16 22.98 16 24 C10.72 24 5.44 24 0 24 C0 16.08 0 8.16 0 0 Z " fill="#8EDE48" transform="translate(211,284)"/>
<path d="M0 0 C0.66 1.32 1.32 2.64 2 4 C1 5 1 5 -2.0625 5.0625 C-3.031875 5.041875 -4.00125 5.02125 -5 5 C-3.59255799 8.51860503 -2.23645161 9.65587062 1.125 11.3125 C3.265625 12.58203125 3.265625 12.58203125 5 14 C5.875 17.5 5.875 17.5 5 21 C2.40237156 24.05221341 0.83698626 25.67342467 -3.109375 26.375 C-5.25 26.4375 -5.25 26.4375 -9 26 C-9.66 25.34 -10.32 24.68 -11 24 C-11 23.01 -11 22.02 -11 21 C-7.7 21 -4.4 21 -1 21 C-0.88364895 18.70218446 -0.88364895 18.70218446 -2 16 C-4.49964054 13.74816865 -7.22308664 11.89117375 -10 10 C-11 9 -11 9 -11.25 6.125 C-11 3 -11 3 -10 1.125 C-6.74686316 -0.70488947 -3.68609891 -0.18128355 0 0 Z " fill="#9CE553" transform="translate(265,283)"/>
<path d="M0 0 C5.28 0 10.56 0 16 0 C16 1.65 16 3.3 16 5 C12.7 5.33 9.4 5.66 6 6 C5.67 8.64 5.34 11.28 5 14 C7.31 14 9.62 14 12 14 C12 15.32 12 16.64 12 18 C10.576875 18.3403125 10.576875 18.3403125 9.125 18.6875 C5.80676612 19.69083714 5.80676612 19.69083714 4.625 22.625 C4.41875 23.40875 4.2125 24.1925 4 25 C2.68 25 1.36 25 0 25 C0 16.75 0 8.5 0 0 Z " fill="#91E858" transform="translate(122,283)"/>
<path d="M0 0 C1.98 0 3.96 0 6 0 C6 7.26 6 14.52 6 22 C9.3 22 12.6 22 16 22 C16.33 23.32 16.66 24.64 17 26 C11.06 26 5.12 26 -1 26 C-0.67 17.42 -0.34 8.84 0 0 Z " fill="#AEED80" transform="translate(838,283)"/>
<path d="M0 0 C22.11 0 44.22 0 67 0 C67 0.33 67 0.66 67 1 C65.02 1 63.04 1 61 1 C61 1.66 61 2.32 61 3 C30.97 3 0.94 3 -30 3 C-30 2.67 -30 2.34 -30 2 C-15.15 1.505 -15.15 1.505 0 1 C0 0.67 0 0.34 0 0 Z " fill="#4E8A2B" transform="translate(333,263)"/>
<path d="M0 0 C1.65 0 3.3 0 5 0 C5 7.26 5 14.52 5 22 C8.96 22 12.92 22 17 22 C16.67 23.32 16.34 24.64 16 26 C10.72 26 5.44 26 0 26 C0 17.42 0 8.84 0 0 Z " fill="#97DF5E" transform="translate(643,283)"/>
<path d="M0 0 C2.64 0 5.28 0 8 0 C11.05606386 5.04914899 12.21231626 10.12591685 12 16 C11.34 16.99 10.68 17.98 10 19 C8.0546875 19.29296875 8.0546875 19.29296875 5.875 19.1875 C4.59625 19.125625 3.3175 19.06375 2 19 C2 18.34 2 17.68 2 17 C3.98 17 5.96 17 8 17 C7.57692877 15.68277821 7.13602514 14.37127336 6.6875 13.0625 C6.32205078 11.96615234 6.32205078 11.96615234 5.94921875 10.84765625 C5.08759559 8.64067976 5.08759559 8.64067976 2 8 C2 10.31 2 12.62 2 15 C0.68 15.33 -0.64 15.66 -2 16 C-2.2358396 10.22192976 -1.86783046 5.48675196 0 0 Z " fill="#96E853" transform="translate(796,283)"/>
<path d="M0 0 C1.98 0 3.96 0 6 0 C6 8.58 6 17.16 6 26 C4.02 26 2.04 26 0 26 C0 17.42 0 8.84 0 0 Z " fill="#A2E56A" transform="translate(498,283)"/>
<path d="M0 0 C-2.64726165 2.64726165 -5.03194658 3.00727694 -8.625 4.0625 C-21.85338738 8.24022429 -38.1125597 16.16883954 -46 28 C-46.66 28 -47.32 28 -48 28 C-44.31098729 17.28875497 -33.59299619 11.01808752 -24.00683594 5.97509766 C-16.3349603 2.24742475 -8.60968741 -0.34043407 0 0 Z " fill="#DFFBC9" transform="translate(923,111)"/>
<path d="M0 0 C1.7492214 -0.08142927 3.49954542 -0.13938541 5.25 -0.1875 C6.22453125 -0.22230469 7.1990625 -0.25710938 8.203125 -0.29296875 C11.42577588 0.04459943 12.70929638 0.74615828 15 3 C15.9375 5.9375 15.9375 5.9375 16 9 C15.03886134 10.36161311 14.04115841 11.69855198 13 13 C13.22247027 15.37301622 13.94723341 16.90067466 15.0625 19 C16 21 16 21 16 25 C13.6875 25 13.6875 25 11 24 C10.07362082 22.0023577 9.47482551 19.98115584 8.82421875 17.87890625 C8.0925298 15.69690653 8.0925298 15.69690653 5.3125 14.5 C4.549375 14.335 3.78625 14.17 3 14 C3 13.34 3 12.68 3 12 C5.31 12 7.62 12 10 12 C10 9.03 10 6.06 10 3 C6.7 2.67 3.4 2.34 0 2 C0 1.34 0 0.68 0 0 Z " fill="#98E459" transform="translate(168,284)"/>
<path d="M0 0 C3.0625 1.5 3.0625 1.5 5 3 C4.01 3.33 3.02 3.66 2 4 C1.67 4.99 1.34 5.98 1 7 C0.34 6.34 -0.32 5.68 -1 5 C-6.37220285 5.0889327 -6.37220285 5.0889327 -10.9375 7.5 C-12.52118562 11.2263191 -12.75123916 14.9855147 -13 19 C-13.99 18.67 -14.98 18.34 -16 18 C-17.37710449 13.45555517 -16.65154923 10.40413127 -15 6 C-10.70579066 -0.17292593 -7.24076466 -0.74904462 0 0 Z " fill="#92DD4C" transform="translate(703,283)"/>
<path d="M0 0 C16.58030523 -0.64250914 31.42745075 0.10977274 45 11 C45.495 11.99 45.495 11.99 46 13 C42.30057653 12.26370698 39.15630183 10.71724806 35.75 9.125 C24.41412283 4.07696869 12.32107708 2.67672582 0 2 C0 1.34 0 0.68 0 0 Z " fill="#DDF9CA" transform="translate(798,133)"/>
<path d="M0 0 C1.32 0 2.64 0 4 0 C4 8.25 4 16.5 4 25 C2.35 25 0.7 25 -1 25 C-0.67 16.75 -0.34 8.5 0 0 Z " fill="#96E353" transform="translate(531,284)"/>
<path d="M0 0 C0.66 1.32 1.32 2.64 2 4 C1 5 1 5 -2.0625 5.0625 C-3.031875 5.041875 -4.00125 5.02125 -5 5 C-3.84826645 7.46800047 -2.95216435 9.04783565 -1 11 C-1.99 11 -2.98 11 -4 11 C-3.67 11.99 -3.34 12.98 -3 14 C-9.04942966 11.87452471 -9.04942966 11.87452471 -11 9 C-11.38601984 5.91184125 -11.47901666 3.89815624 -10 1.125 C-6.74686316 -0.70488947 -3.68609891 -0.18128355 0 0 Z " fill="#96EA5B" transform="translate(265,283)"/>
<path d="M0 0 C1.65 0 3.3 0 5 0 C5.33 4.95 5.66 9.9 6 15 C8.31 15.33 10.62 15.66 13 16 C13 16.66 13 17.32 13 18 C11.3973218 18.10824843 9.79254252 18.18570645 8.1875 18.25 C7.29417969 18.29640625 6.40085937 18.3428125 5.48046875 18.390625 C3 18 3 18 1.1875 16.4375 C-0.43936557 13.09814436 -0.29012923 10.44465231 -0.1875 6.75 C-0.16042969 5.48671875 -0.13335937 4.2234375 -0.10546875 2.921875 C-0.07066406 1.95765625 -0.03585937 0.9934375 0 0 Z " fill="#8BDB50" transform="translate(297,283)"/>
<path d="M0 0 C0 2.93593133 -0.22499427 5.76556416 -0.5 8.6875 C-0.5928125 9.68136719 -0.685625 10.67523438 -0.78125 11.69921875 C-0.8534375 12.45847656 -0.925625 13.21773438 -1 14 C-0.34 14 0.32 14 1 14 C1.33 11.36 1.66 8.72 2 6 C2.33 6 2.66 6 3 6 C3.103125 7.0725 3.20625 8.145 3.3125 9.25 C4.09542839 13.75521719 4.09542839 13.75521719 7 17 C10.60465748 17.81314911 10.60465748 17.81314911 14 18 C14 18.33 14 18.66 14 19 C12.02 19.33 10.04 19.66 8 20 C10.64 20.33 13.28 20.66 16 21 C16 21.33 16 21.66 16 22 C5.2475535 22.86096102 5.2475535 22.86096102 1.4375 19.6875 C-2.55612107 15.28427677 -3.37242825 12.96463791 -3.26953125 7.23046875 C-2.91300631 4.28009573 -1.80452931 2.33085036 0 0 Z " fill="#98E16B" transform="translate(688,287)"/>
<path d="M0 0 C5.94 0 11.88 0 18 0 C18 1.32 18 2.64 18 4 C11.565 4.495 11.565 4.495 5 5 C5.33 3.68 5.66 2.36 6 1 C4.68 1.33 3.36 1.66 2 2 C1.67 9.26 1.34 16.52 1 24 C2.32 24.33 3.64 24.66 5 25 C3.35 25 1.7 25 0 25 C0 16.75 0 8.5 0 0 Z " fill="#ACE57E" transform="translate(408,284)"/>
<path d="M0 0 C10.23 0 20.46 0 31 0 C31 3.96 31 7.92 31 12 C20.11 12 9.22 12 -2 12 C0.25900493 9.74099507 0.94183075 9.65541971 4 9.3125 C4.70125 9.22613281 5.4025 9.13976562 6.125 9.05078125 C8 9 8 9 10 10 C11.5195764 10.15123831 13.04472502 10.24881693 14.5703125 10.31640625 C15.91416016 10.37924805 15.91416016 10.37924805 17.28515625 10.44335938 C18.22230469 10.48267578 19.15945313 10.52199219 20.125 10.5625 C21.54232422 10.62727539 21.54232422 10.62727539 22.98828125 10.69335938 C25.32534172 10.7995894 27.6626513 10.90031271 30 11 C30 7.7 30 4.4 30 1 C20.1 1 10.2 1 0 1 C0 0.67 0 0.34 0 0 Z " fill="#769C58" transform="translate(379,230)"/>
<path d="M0 0 C2.31 0 4.62 0 7 0 C7.33 1.65 7.66 3.3 8 5 C6.68 5.33 5.36 5.66 4 6 C4 5.34 4 4.68 4 4 C3.01 4 2.02 4 1 4 C1.33 4.66 1.66 5.32 2 6 C1.91348369 7.54613014 1.75997364 9.08909387 1.5625 10.625 C1.46066406 11.44226563 1.35882813 12.25953125 1.25390625 13.1015625 C1.17011719 13.72804688 1.08632813 14.35453125 1 15 C-0.32 15.33 -1.64 15.66 -3 16 C-2.57910004 10.39538469 -2.08386889 5.27913453 0 0 Z " fill="#91DF52" transform="translate(456,283)"/>
<path d="M0 0 C0.99 0 1.98 0 3 0 C2.67 7.26 2.34 14.52 2 22 C6.29 22 10.58 22 15 22 C15 22.66 15 23.32 15 24 C9.39 24 3.78 24 -2 24 C-1.01 22.515 -1.01 22.515 0 21 C0.27512419 18.67733918 0.27512419 18.67733918 0.1953125 16.11328125 C0.18886719 15.17548828 0.18242188 14.23769531 0.17578125 13.27148438 C0.15064453 11.80678711 0.15064453 11.80678711 0.125 10.3125 C0.11597656 9.32443359 0.10695313 8.33636719 0.09765625 7.31835938 C0.0740843 4.87866235 0.04118022 2.43945303 0 0 Z " fill="#91E446" transform="translate(840,284)"/>
<path d="M0 0 C0.99 0 1.98 0 3 0 C3 8.25 3 16.5 3 25 C1.68 25 0.36 25 -1 25 C-1 22.36 -1 19.72 -1 17 C-0.34 17 0.32 17 1 17 C0.67 16.34 0.34 15.68 0 15 C-0.0716735 12.44842345 -0.09308442 9.92527029 -0.0625 7.375 C-0.05798828 6.66859375 -0.05347656 5.9621875 -0.04882812 5.234375 C-0.03703875 3.48954725 -0.01910324 1.744763 0 0 Z " fill="#94E646" transform="translate(312,284)"/>
<path d="M0 0 C2 3 2 3 3 6.5625 C3.70977006 10.03073325 3.70977006 10.03073325 6 12 C5.625 14.125 5.625 14.125 5 16 C2.6875 16.3125 2.6875 16.3125 0 16 C-0.433125 15.195625 -0.86625 14.39125 -1.3125 13.5625 C-2.69473745 10.85552673 -2.69473745 10.85552673 -4.9609375 10.4453125 C-6.96602714 10.21314423 -8.98395043 10.09914998 -11 10 C-11 11.65 -11 13.3 -11 15 C-11.66 14.67 -12.32 14.34 -13 14 C-12.67 12.35 -12.34 10.7 -12 9 C-6.555 8.505 -6.555 8.505 -1 8 C0.16169042 4.0404226 0.16169042 4.0404226 0 0 Z " fill="#B5EB86" transform="translate(807,293)"/>
<path d="M0 0 C0.33 0 0.66 0 1 0 C1 2.64 1 5.28 1 8 C3.64 8 6.28 8 9 8 C8.67 9.32 8.34 10.64 8 12 C5.69 12 3.38 12 1 12 C1 13.32 1 14.64 1 16 C4.63 16 8.26 16 12 16 C12 16.33 12 16.66 12 17 C7.38 17 2.76 17 -2 17 C-1.34 14.69 -0.68 12.38 0 10 C-0.66 9.67 -1.32 9.34 -2 9 C-1.34 6.03 -0.68 3.06 0 0 Z " fill="#A3E26D" transform="translate(215,289)"/>
<path d="M0 0 C1.65 0 3.3 0 5 0 C5 8.25 5 16.5 5 25 C4.67 25 4.34 25 4 25 C4 17.08 4 9.16 4 1 C3.01 1 2.02 1 1 1 C1.33 6.61 1.66 12.22 2 18 C1.34 18 0.68 18 0 18 C-0.33 18.66 -0.66 19.32 -1 20 C-3.31 19.67 -5.62 19.34 -8 19 C-8 18.67 -8 18.34 -8 18 C-5.69 18 -3.38 18 -1 18 C-1 17.34 -1 16.68 -1 16 C-3.31 16 -5.62 16 -8 16 C-8 15.67 -8 15.34 -8 15 C-5.36 15 -2.72 15 0 15 C0 10.05 0 5.1 0 0 Z " fill="#AAE577" transform="translate(311,283)"/>
<path d="M0 0 C5.28 0 10.56 0 16 0 C16 1.65 16 3.3 16 5 C12.7 5.33 9.4 5.66 6 6 C5.67 8.64 5.34 11.28 5 14 C7.31 14 9.62 14 12 14 C12 14.33 12 14.66 12 15 C9.36 15 6.72 15 4 15 C3.97291433 13.39592672 3.95356517 11.7917215 3.9375 10.1875 C3.92589844 9.29417969 3.91429688 8.40085937 3.90234375 7.48046875 C4 5 4 5 5 2 C5.63808594 2.01160156 6.27617187 2.02320313 6.93359375 2.03515625 C7.75988281 2.04417969 8.58617187 2.05320312 9.4375 2.0625 C10.67306641 2.07990234 10.67306641 2.07990234 11.93359375 2.09765625 C13.99163938 2.23267348 13.99163938 2.23267348 15 1 C10.05 1 5.1 1 0 1 C0 0.67 0 0.34 0 0 Z " fill="#AEEE7A" transform="translate(122,283)"/>
<path d="M0 0 C0.99 0.495 0.99 0.495 2 1 C2 7.27 2 13.54 2 20 C5.63 20.33 9.26 20.66 13 21 C13 22.65 13 24.3 13 26 C12.34 25.67 11.68 25.34 11 25 C11.33 24.01 11.66 23.02 12 22 C8.04 22 4.08 22 0 22 C0 14.74 0 7.48 0 0 Z " fill="#DBF7CB" transform="translate(648,283)"/>
<path d="M0 0 C0.33 0.66 0.66 1.32 1 2 C1.66 2 2.32 2 3 2 C3.33 5.63 3.66 9.26 4 13 C2.68 13.33 1.36 13.66 0 14 C-2.61382886 10.07925671 -2.29386386 6.55488983 -2 2 C-1.34 1.34 -0.68 0.68 0 0 Z " fill="#93E24F" transform="translate(741,290)"/>
<path d="M0 0 C2.00720923 0.28674418 4.0085944 0.61866701 6 1 C6.625 3.375 6.625 3.375 7 6 C5 8 5 8 1.875 8.125 C0.451875 8.063125 0.451875 8.063125 -1 8 C-1.04241723 5.66705225 -1.04092937 3.33297433 -1 1 C-0.67 0.67 -0.34 0.34 0 0 Z " fill="#FAF7F3" transform="translate(171,287)"/>
<path d="M0 0 C2.33294775 -0.04241723 4.66702567 -0.04092937 7 0 C8 1 8 1 8.125 3.5 C8 6 8 6 7 7 C4.66702567 7.04092937 2.33294775 7.04241723 0 7 C0 4.69 0 2.38 0 0 Z " fill="#F9F9F4" transform="translate(536,288)"/>
<path d="M0 0 C1.65 0 3.3 0 5 0 C4.5020163 3.73487777 4.12508244 5.81237635 2 9 C0.68 8.67 -0.64 8.34 -2 8 C-2 6.02 -2 4.04 -2 2 C-1.34 2 -0.68 2 0 2 C0 1.34 0 0.68 0 0 Z " fill="#A0E453" transform="translate(345,305)"/>
<path d="M0 0 C-2.69217955 2.69217955 -5.78150447 3.50601341 -9.3125 4.6875 C-9.97701172 4.92533203 -10.64152344 5.16316406 -11.32617188 5.40820312 C-15.25788537 6.73433003 -18.01011046 7.273369 -22 6 C-15.5768343 1.71788953 -7.71940134 -0.70176376 0 0 Z " fill="#D4F5BA" transform="translate(923,111)"/>
<path d="M0 0 C1.32 0 2.64 0 4 0 C4.25 5.625 4.25 5.625 2 9 C0.68 9 -0.64 9 -2 9 C-2.25 3.375 -2.25 3.375 0 0 Z " fill="#8EE039" transform="translate(579,305)"/>
<path d="M0 0 C0.66 0 1.32 0 2 0 C5 6.625 5 6.625 5 10 C3.02 10 1.04 10 -1 10 C-1.02689216 8.52093108 -1.04634621 7.04172517 -1.0625 5.5625 C-1.07410156 4.73878906 -1.08570313 3.91507812 -1.09765625 3.06640625 C-1 1 -1 1 0 0 Z " fill="#DAEFC4" transform="translate(459,290)"/>
<path d="M0 0 C0.33 0 0.66 0 1 0 C1 1.65 1 3.3 1 5 C2.32 5 3.64 5 5 5 C5 3.68 5 2.36 5 1 C7.31 1 9.62 1 12 1 C12 1.33 12 1.66 12 2 C10.02 2 8.04 2 6 2 C7.15173355 4.46800047 8.04783565 6.04783565 10 8 C9.01 8 8.02 8 7 8 C7.33 8.99 7.66 9.98 8 11 C1.95057034 8.87452471 1.95057034 8.87452471 0 6 C-0.1875 2.8125 -0.1875 2.8125 0 0 Z " fill="#A2E674" transform="translate(254,286)"/>
<path d="M0 0 C1.65 0 3.3 0 5 0 C5.48635236 6.32258065 5.48635236 6.32258065 3.25 9.4375 C1 11 1 11 -3 11 C-3 10.34 -3 9.68 -3 9 C-2.01 8.67 -1.02 8.34 0 8 C0 5.36 0 2.72 0 0 Z " fill="#9BE550" transform="translate(265,297)"/>
<path d="M0 0 C1.98 0.495 1.98 0.495 4 1 C5.52164099 3.89111788 6 5.71823412 6 9 C3.69 9 1.38 9 -1 9 C-0.67 6.03 -0.34 3.06 0 0 Z " fill="#DFEED4" transform="translate(798,291)"/>
<path d="M0 0 C0.66 0 1.32 0 2 0 C1.67 4.95 1.34 9.9 1 15 C0.01 14.67 -0.98 14.34 -2 14 C-3.54506466 8.90128664 -2.34714711 4.69429422 0 0 Z " fill="#89E049" transform="translate(689,287)"/>
<path d="M0 0 C0.99 0 1.98 0 3 0 C3 6.6 3 13.2 3 20 C2.34 20 1.68 20 1 20 C0.67 13.4 0.34 6.8 0 0 Z " fill="#8CE53E" transform="translate(644,284)"/>
<path d="M0 0 C0 0.66 0 1.32 0 2 C-1.76371818 3.03307771 -3.53625033 4.05112049 -5.3125 5.0625 C-6.79169922 5.91521484 -6.79169922 5.91521484 -8.30078125 6.78515625 C-11 8 -11 8 -14 7 C-9.82547171 2.51624739 -6.36062509 -0.54519644 0 0 Z " fill="#E6FBD3" transform="translate(904,117)"/>
<path d="M0 0 C1.65 0 3.3 0 5 0 C5 3.63 5 7.26 5 11 C3.68 11.33 2.36 11.66 1 12 C1.01160156 11.30132812 1.02320313 10.60265625 1.03515625 9.8828125 C1.04417969 8.97273438 1.05320312 8.06265625 1.0625 7.125 C1.07410156 6.22007812 1.08570313 5.31515625 1.09765625 4.3828125 C1.16249257 1.9831415 1.16249257 1.9831415 0 0 Z " fill="#9BE367" transform="translate(297,283)"/>
<path d="M0 0 C-0.99 0.495 -0.99 0.495 -2 1 C-2.33 1.99 -2.66 2.98 -3 4 C-5.5625 5.1875 -5.5625 5.1875 -8 6 C-8 7.98 -8 9.96 -8 12 C-10.29633824 8.55549263 -10.54016485 6.06187717 -11 2 C-7.17679443 0.57741188 -4.08718695 -0.24042276 0 0 Z " fill="#547F34" transform="translate(498,173)"/>
<path d="M0 0 C0.33 0 0.66 0 1 0 C1 1.65 1 3.3 1 5 C-0.32 5 -1.64 5 -3 5 C-3 5.66 -3 6.32 -3 7 C-3.66 7 -4.32 7 -5 7 C-5 8.65 -5 10.3 -5 12 C-4.34 12 -3.68 12 -3 12 C-3 12.66 -3 13.32 -3 14 C-4.65 14 -6.3 14 -8 14 C-7.17812739 9.61667943 -6.09845718 5.32059823 -5 1 C-4.67 1.99 -4.34 2.98 -4 4 C-3.01 3.67 -2.02 3.34 -1 3 C-0.67 2.01 -0.34 1.02 0 0 Z " fill="#9DE45F" transform="translate(457,295)"/>
<path d="M0 0 C5.4611399 0.35233161 5.4611399 0.35233161 8 1 C9.5 3.0625 9.5 3.0625 10 5 C9.01 4.34 8.02 3.68 7 3 C5.34450469 2.61500109 3.6777567 2.27206865 2 2 C2 4.97 2 7.94 2 11 C1.34 11 0.68 11 0 11 C0 7.37 0 3.74 0 0 Z " fill="#B1EA83" transform="translate(168,298)"/>
<path d="M0 0 C0.66 0.66 1.32 1.32 2 2 C1.6875 3.8125 1.6875 3.8125 1 6 C0.65939189 7.66519519 0.32441604 9.33157466 0 11 C-1.74627478 8.38058783 -2.38722388 6.96175123 -3 4 C-3.99 4.33 -4.98 4.66 -6 5 C-6.33 3.68 -6.66 2.36 -7 1 C-6.01 1 -5.02 1 -4 1 C-4 1.66 -4 2.32 -4 3 C-3.01 2.67 -2.02 2.34 -1 2 C-0.67 1.34 -0.34 0.68 0 0 Z " fill="#9BE35A" transform="translate(464,286)"/>
<path d="M0 0 C4.62 0 9.24 0 14 0 C13.67 0.66 13.34 1.32 13 2 C10.03 1.67 7.06 1.34 4 1 C3.67 4.63 3.34 8.26 3 12 C2.67 12 2.34 12 2 12 C1.34 8.04 0.68 4.08 0 0 Z " fill="#8BE349" transform="translate(123,284)"/>
<path d="M0 0 C5.67853635 1.41963409 9.53174216 4.39363961 14 8 C11 9 11 9 8.625 8.07421875 C7.75875 7.61660156 6.8925 7.15898437 6 6.6875 C4.700625 6.01267578 4.700625 6.01267578 3.375 5.32421875 C1 4 1 4 -2 2 C-1.34 1.34 -0.68 0.68 0 0 Z " fill="#D6F7BC" transform="translate(830,137)"/>
<path d="M0 0 C2.05078125 0.03255208 4.1015625 0.06510417 6.15234375 0.09765625 C5.82234375 1.08765625 5.49234375 2.07765625 5.15234375 3.09765625 C3.69828125 3.56171875 3.69828125 3.56171875 2.21484375 4.03515625 C-0.95269672 4.78233646 -0.95269672 4.78233646 -2.22265625 7.22265625 C-2.42890625 7.84140625 -2.63515625 8.46015625 -2.84765625 9.09765625 C-2.9453125 2.9453125 -2.9453125 2.9453125 -2.84765625 1.09765625 C-1.84765625 0.09765625 -1.84765625 0.09765625 0 0 Z " fill="#99E155" transform="translate(128.84765625,297.90234375)"/>
<path d="M0 0 C0.33 0 0.66 0 1 0 C1.33 4.29 1.66 8.58 2 13 C-2 10 -2 10 -2.4609375 8.02734375 C-2.22222222 2.22222222 -2.22222222 2.22222222 0 0 Z " fill="#92E559" transform="translate(412,292)"/>
<path d="M0 0 C2.66666667 0.66666667 5.33333333 1.33333333 8 2 C8 2.66 8 3.32 8 4 C8.66 4.33 9.32 4.66 10 5 C3.9453125 5.1953125 3.9453125 5.1953125 2 5 C1.34 4.34 0.68 3.68 0 3 C0 2.01 0 1.02 0 0 Z " fill="#9AE462" transform="translate(254,304)"/>
<path d="M0 0 C3.27247274 4.26844271 4.34325825 6.50786803 4 12 C3.34 12.66 2.68 13.32 2 14 C-0.29612756 4.58997722 -0.29612756 4.58997722 0 0 Z " fill="#A3E45D" transform="translate(709,287)"/>
<path d="M0 0 C2.64 0 5.28 0 8 0 C11.07692308 5.41538462 11.07692308 5.41538462 10.6875 8.375 C10.460625 8.91125 10.23375 9.4475 10 10 C9.649375 8.865625 9.29875 7.73125 8.9375 6.5625 C8.20614319 4.60694436 8.20614319 4.60694436 7 3 C3.41136476 1.9384058 3.41136476 1.9384058 0 2 C0 1.34 0 0.68 0 0 Z " fill="#B0E480" transform="translate(796,283)"/>
<path d="M0 0 C0.99 0.99 1.98 1.98 3 3 C2.34 4.65 1.68 6.3 1 8 C-1.64 8 -4.28 8 -7 8 C-7 7.34 -7 6.68 -7 6 C-5.02 5.67 -3.04 5.34 -1 5 C-0.67 3.35 -0.34 1.7 0 0 Z " fill="#8DD64F" transform="translate(805,294)"/>
<path d="M0 0 C0.66 0.33 1.32 0.66 2 1 C2 1.99 2 2.98 2 4 C-1.96 4 -5.92 4 -10 4 C-10 3.34 -10 2.68 -10 2 C-6.7 2 -3.4 2 0 2 C0 1.34 0 0.68 0 0 Z " fill="#A8EA72" transform="translate(758,284)"/>
<path d="M0 0 C2.64 0 5.28 0 8 0 C8.33 0.99 8.66 1.98 9 3 C5.7 3 2.4 3 -1 3 C-0.67 2.01 -0.34 1.02 0 0 Z " fill="#93E33D" transform="translate(749,283)"/>
<path d="M0 0 C-0.33 1.32 -0.66 2.64 -1 4 C-4.63 4 -8.26 4 -12 4 C-4 0 -4 0 0 0 Z " fill="#87DD39" transform="translate(761,304)"/>
<path d="M0 0 C5.41538462 -0.36923077 5.41538462 -0.36923077 8.375 1.5 C8.91125 1.995 9.4475 2.49 10 3 C9.67 3.99 9.34 4.98 9 6 C8.01 5.67 7.02 5.34 6 5 C5.67 4.34 5.34 3.68 5 3 C2.47266765 2.34444881 2.47266765 2.34444881 0 2 C0 1.34 0 0.68 0 0 Z " fill="#88D94F" transform="translate(536,296)"/>
<path d="M0 0 C0.33 0 0.66 0 1 0 C1 2.64 1 5.28 1 8 C-2.63 8 -6.26 8 -10 8 C-9.67 7.01 -9.34 6.02 -9 5 C-6.03 5.33 -3.06 5.66 0 6 C0 4.02 0 2.04 0 0 Z " fill="#3F7B18" transform="translate(600,233)"/>
<path d="M0 0 C1.32 0 2.64 0 4 0 C4 0.66 4 1.32 4 2 C3.34 2 2.68 2 2 2 C1.67 3.65 1.34 5.3 1 7 C0.01 7 -0.98 7 -2 7 C-2 5.35 -2 3.7 -2 2 C-1.34 2 -0.68 2 0 2 C0 1.34 0 0.68 0 0 Z " fill="#91DF36" transform="translate(454,300)"/>
<path d="M0 0 C2.31 0 4.62 0 7 0 C7.33 0.99 7.66 1.98 8 3 C5.03 3 2.06 3 -1 3 C-0.67 2.01 -0.34 1.02 0 0 Z " fill="#96E146" transform="translate(259,284)"/>
<path d="M0 0 C-2 2 -2 2 -4.6015625 2.1953125 C-5.59929688 2.17210937 -6.59703125 2.14890625 -7.625 2.125 C-9.12933594 2.09792969 -9.12933594 2.09792969 -10.6640625 2.0703125 C-11.43492187 2.04710937 -12.20578125 2.02390625 -13 2 C-9.31563748 -1.68436252 -4.79080997 -1.26815558 0 0 Z " fill="#7BD33F" transform="translate(707,306)"/>
<path d="M0 0 C2 3 2 3 2 5 C4.64 5.33 7.28 5.66 10 6 C10 6.33 10 6.66 10 7 C6.7 7 3.4 7 0 7 C0 4.69 0 2.38 0 0 Z " fill="#E5FADE" transform="translate(844,298)"/>
<path d="M0 0 C2.97 0 5.94 0 9 0 C8.67 0.99 8.34 1.98 8 3 C5.69 3 3.38 3 1 3 C0.67 2.01 0.34 1.02 0 0 Z " fill="#86CE48" transform="translate(413,298)"/>
<path d="M0 0 C1.32 0 2.64 0 4 0 C3.67 3.3 3.34 6.6 3 10 C0.70366176 6.55549263 0.45983515 4.06187717 0 0 Z " fill="#89E439" transform="translate(531,284)"/>
<path d="M0 0 C0.66 0.99 1.32 1.98 2 3 C-2.625 7.875 -2.625 7.875 -6 9 C-4.68775452 5.06326356 -3.08089673 2.77280706 0 0 Z " fill="#D2F8B6" transform="translate(881,130)"/>
<path d="M0 0 C2 2 2 2 2 6 C0.35 5.67 -1.3 5.34 -3 5 C-3.33 3.68 -3.66 2.36 -4 1 C-2.68 1.33 -1.36 1.66 0 2 C0 1.34 0 0.68 0 0 Z " fill="#9EE568" transform="translate(182,303)"/>
<path d="M0 0 C0.33 0 0.66 0 1 0 C1.33 3.3 1.66 6.6 2 10 C1.01 10 0.02 10 -1 10 C-1.02689216 8.52093108 -1.04634621 7.04172517 -1.0625 5.5625 C-1.07410156 4.73878906 -1.08570313 3.91507812 -1.09765625 3.06640625 C-1 1 -1 1 0 0 Z " fill="#8EE03E" transform="translate(501,298)"/>
<path d="M0 0 C0.66 0.33 1.32 0.66 2 1 C1.67 1.66 1.34 2.32 1 3 C4.465 2.505 4.465 2.505 8 2 C5.08596738 3.94268841 2.14191424 5.46395304 -1 7 C-1.625 4.625 -1.625 4.625 -2 2 C-1.34 1.34 -0.68 0.68 0 0 Z " fill="#98E257" transform="translate(692,284)"/>
<path d="M0 0 C1.32 1.65 2.64 3.3 4 5 C3.01 5 2.02 5 1 5 C1.33 5.99 1.66 6.98 2 8 C-1.875 6.25 -1.875 6.25 -3 4 C-2.34 3.67 -1.68 3.34 -1 3 C-0.67 2.01 -0.34 1.02 0 0 Z " fill="#9DE072" transform="translate(745,300)"/>
<path d="M0 0 C0.33 0 0.66 0 1 0 C1 1.98 1 3.96 1 6 C1.99 5.67 2.98 5.34 4 5 C4.33 6.32 4.66 7.64 5 9 C3.02 8.34 1.04 7.68 -1 7 C-0.67 4.69 -0.34 2.38 0 0 Z " fill="#A0E262" transform="translate(793,293)"/>
<path d="M0 0 C0 1.98 0 3.96 0 6 C-1.32 6.33 -2.64 6.66 -4 7 C-4.1875 4.625 -4.1875 4.625 -4 2 C-1 0 -1 0 0 0 Z " fill="#8DDD3D" transform="translate(457,292)"/>
<path d="M0 0 C0 4.76234612 -1.04218336 9.34774775 -2 14 C-2.33 14 -2.66 14 -3 14 C-3.32374517 8.49633208 -3.53286034 4.56327794 0 0 Z " fill="#AAEC77" transform="translate(688,287)"/>
<path d="M0 0 C1.10844919 3.32534757 0.84454356 5.62182575 0 9 C-1.5625 7.75 -1.5625 7.75 -3 6 C-2.72963853 3.02602384 -2.14553974 2.14553974 0 0 Z " fill="#DCF4D5" transform="translate(549,294)"/>
<path d="M0 0 C0.33 0.99 0.66 1.98 1 3 C-0.65 3 -2.3 3 -4 3 C-4.33 4.32 -4.66 5.64 -5 7 C-5.66 6.34 -6.32 5.68 -7 5 C-7 4.01 -7 3.02 -7 2 C-4.69 1.34 -2.38 0.68 0 0 Z " fill="#DDF4D2" transform="translate(267,286)"/>
<path d="M0 0 C2.00720923 0.28674418 4.0085944 0.61866701 6 1 C5.071875 1.3403125 5.071875 1.3403125 4.125 1.6875 C1.38589791 3.37929835 0.94975528 4.99244161 0 8 C-0.33 8 -0.66 8 -1 8 C-1.04241723 5.66705225 -1.04092937 3.33297433 -1 1 C-0.67 0.67 -0.34 0.34 0 0 Z " fill="#E9F9DC" transform="translate(171,287)"/>
<path d="M0 0 C0.99 0.33 1.98 0.66 3 1 C1.02 3.31 -0.96 5.62 -3 8 C-3.66 7.34 -4.32 6.68 -5 6 C-4.34 5.01 -3.68 4.02 -3 3 C-2.34 3 -1.68 3 -1 3 C-0.67 2.01 -0.34 1.02 0 0 Z " fill="#A1D883" transform="translate(879,129)"/>
<path d="M0 0 C0.66 1.32 1.32 2.64 2 4 C1.67 4.33 1.34 4.66 1 5 C1.99 5.66 2.98 6.32 4 7 C2.35 7.33 0.7 7.66 -1 8 C-1.125 2.25 -1.125 2.25 0 0 Z " fill="#9BE264" transform="translate(578,306)"/>
<path d="M0 0 C3 3.625 3 3.625 3 7 C1.68 6.67 0.36 6.34 -1 6 C-0.67 4.02 -0.34 2.04 0 0 Z " fill="#97EA42" transform="translate(808,301)"/>
<path d="M0 0 C0.33 0 0.66 0 1 0 C1 2.31 1 4.62 1 7 C0.01 7.33 -0.98 7.66 -2 8 C-2 6.02 -2 4.04 -2 2 C-1.34 2 -0.68 2 0 2 C0 1.34 0 0.68 0 0 Z " fill="#95E743" transform="translate(796,291)"/>
<path d="M0 0 C0.66 0 1.32 0 2 0 C2 2.31 2 4.62 2 7 C0.68 7 -0.64 7 -2 7 C-1.67 6.01 -1.34 5.02 -1 4 C-0.65772583 2.66893378 -0.32248257 1.33599921 0 0 Z " fill="#91E547" transform="translate(180,289)"/>
<path d="M0 0 C1.85776765 3.13498292 2.20140476 5.37471432 2 9 C0 7 0 7 -1 4 C-1.66 3.67 -2.32 3.34 -3 3 C-3 2.34 -3 1.68 -3 1 C-2.01 0.67 -1.02 0.34 0 0 Z " fill="#9EE472" transform="translate(802,288)"/>
<path d="M0 0 C0 0.99 0 1.98 0 3 C-2.31 3 -4.62 3 -7 3 C-7 2.34 -7 1.68 -7 1 C-4.53721199 -0.231394 -2.7204945 -0.07159196 0 0 Z " fill="#95E350" transform="translate(425,284)"/>
<path d="M0 0 C0.99 0 1.98 0 3 0 C4 3 4 3 3 6 C2.67 7.32 2.34 8.64 2 10 C1.34 6.7 0.68 3.4 0 0 Z " fill="#588541" transform="translate(487,175)"/>
<path d="M0 0 C1.98 0 3.96 0 6 0 C5.34 1.32 4.68 2.64 4 4 C2.68 3.67 1.36 3.34 0 3 C0 2.01 0 1.02 0 0 Z " fill="#93CF64" transform="translate(935,105)"/>
<path d="M0 0 C0.33 1.32 0.66 2.64 1 4 C1.66 4 2.32 4 3 4 C3 4.66 3 5.32 3 6 C1.35 6 -0.3 6 -2 6 C-1.125 1.125 -1.125 1.125 0 0 Z " fill="#9EE06B" transform="translate(451,303)"/>
<path d="M0 0 C0.66 0 1.32 0 2 0 C1.67 1.65 1.34 3.3 1 5 C-0.65 5.33 -2.3 5.66 -4 6 C-4 5.34 -4 4.68 -4 4 C-3.01 3.67 -2.02 3.34 -1 3 C-0.67 2.01 -0.34 1.02 0 0 Z " fill="#8DDC33" transform="translate(266,302)"/>
<path d="M0 0 C0.33 0 0.66 0 1 0 C1.33 3.3 1.66 6.6 2 10 C0.68 10.33 -0.64 10.66 -2 11 C-2 10.34 -2 9.68 -2 9 C-1.34 9 -0.68 9 0 9 C0 6.03 0 3.06 0 0 Z " fill="#8FDC59" transform="translate(743,293)"/>
<path d="M0 0 C0.99 0 1.98 0 3 0 C2.25 5.75 2.25 5.75 0 8 C0 5.36 0 2.72 0 0 Z " fill="#92EC3E" transform="translate(212,299)"/>
<path d="M0 0 C0.33 1.32 0.66 2.64 1 4 C1.66 4 2.32 4 3 4 C3 4.99 3 5.98 3 7 C1.68 7 0.36 7 -1 7 C-0.67 4.69 -0.34 2.38 0 0 Z " fill="#F7F1F5" transform="translate(459,292)"/>
<path d="M0 0 C4.455 0.99 4.455 0.99 9 2 C9 2.33 9 2.66 9 3 C5.37 3 1.74 3 -2 3 C-1.34 2.01 -0.68 1.02 0 0 Z " fill="#4C8128" transform="translate(430,239)"/>
<path d="M0 0 C1.9955516 3.99110319 2.19546065 5.69986566 2 10 C1.01 9.67 0.02 9.34 -1 9 C-0.67 6.03 -0.34 3.06 0 0 Z " fill="#718F59" transform="translate(508,212)"/>
<path d="M0 0 C0.99 0 1.98 0 3 0 C2.47731534 2.76276177 1.89130413 5.3260876 1 8 C0.34 7.67 -0.32 7.34 -1 7 C-0.67 4.69 -0.34 2.38 0 0 Z " fill="#D9F8CA" transform="translate(414,301)"/>
<path d="M0 0 C1.32 0 2.64 0 4 0 C3.67 1.32 3.34 2.64 3 4 C1.68 4 0.36 4 -1 4 C-0.67 2.68 -0.34 1.36 0 0 Z " fill="#90E455" transform="translate(410,285)"/>
<path d="M0 0 C1.65 1.65 3.3 3.3 5 5 C3.35 5 1.7 5 0 5 C-0.33 4.01 -0.66 3.02 -1 2 C-0.67 1.34 -0.34 0.68 0 0 Z " fill="#638943" transform="translate(635,222)"/>
</svg>
